<?xml version="1.0" encoding="UTF-8"?>
<svg xmlns="http://www.w3.org/2000/svg" xmlns:xlink="http://www.w3.org/1999/xlink" viewBox="0 0 160 160" width="160px" height="160px">
<g id="surface25781384">
<path style=" stroke:none;fill-rule:nonzero;fill:rgb(28.235295%,54.901963%,89.803922%);fill-opacity:1;" d="M 93 80 C 93 87.1875 87.1875 93 80 93 C 72.8125 93 67 87.1875 67 80 C 67 72.8125 72.8125 67 80 67 C 87.1875 67 93 72.8125 93 80 Z M 93 80 "/>
<path style=" stroke:none;fill-rule:nonzero;fill:rgb(30.588236%,47.843137%,70.980394%);fill-opacity:1;" d="M 80 94 C 72.28125 94 66 87.71875 66 80 C 66 72.28125 72.28125 66 80 66 C 87.71875 66 94 72.28125 94 80 C 94 87.71875 87.71875 94 80 94 Z M 80 68 C 73.382812 68 68 73.382812 68 80 C 68 86.617188 73.382812 92 80 92 C 86.617188 92 92 86.617188 92 80 C 92 73.382812 86.617188 68 80 68 Z M 80 68 "/>
<path style=" stroke:none;fill-rule:nonzero;fill:rgb(28.235295%,54.901963%,89.803922%);fill-opacity:1;" d="M 48.949219 151.007812 C 45.527344 151.007812 42.410156 150.222656 39.683594 148.679688 C 35.125 146.09375 31.972656 141.636719 30.3125 135.4375 C 28.382812 128.222656 28.613281 118.640625 30.976562 107.683594 C 11.910156 101.125 1 91.0625 1 80 C 1 68.9375 11.910156 58.875 30.972656 52.320312 C 28.609375 41.359375 28.378906 31.777344 30.308594 24.5625 C 31.96875 18.363281 35.121094 13.90625 39.679688 11.320312 C 42.402344 9.777344 45.519531 8.992188 48.941406 8.992188 C 57.71875 8.992188 68.722656 14.453125 80.003906 24.390625 C 91.285156 14.464844 102.285156 9.007812 111.050781 9.007812 C 114.472656 9.007812 117.589844 9.792969 120.316406 11.335938 C 124.871094 13.917969 128.023438 18.367188 129.683594 24.558594 C 131.617188 31.769531 131.382812 41.355469 129.019531 52.316406 C 148.085938 58.875 159 68.9375 159 80 C 159 91.0625 148.085938 101.125 129.019531 107.683594 C 131.382812 118.644531 131.613281 128.226562 129.683594 135.441406 C 128.023438 141.632812 124.871094 146.082031 120.320312 148.664062 C 117.59375 150.207031 114.476562 150.992188 111.054688 150.992188 C 102.285156 150.992188 91.277344 145.535156 80.003906 135.613281 C 68.722656 145.546875 57.71875 151.007812 48.949219 151.007812 Z M 38.675781 110.011719 C 36.691406 119.445312 36.46875 127.507812 38.042969 133.371094 C 39.125 137.421875 41.003906 140.230469 43.628906 141.71875 C 45.136719 142.574219 46.925781 143.007812 48.949219 143.007812 C 55.734375 143.007812 64.671875 138.445312 74.191406 130.132812 C 69.421875 125.328125 64.765625 119.890625 60.335938 113.953125 C 52.671875 113.121094 45.390625 111.796875 38.675781 110.011719 Z M 85.8125 130.128906 C 95.328125 138.433594 104.265625 142.992188 111.054688 142.992188 C 113.074219 142.992188 114.867188 142.558594 116.375 141.707031 C 118.992188 140.222656 120.867188 137.417969 121.949219 133.371094 C 123.523438 127.503906 123.300781 119.445312 121.320312 110.015625 C 114.597656 111.796875 107.3125 113.121094 99.652344 113.953125 C 95.226562 119.894531 90.574219 125.328125 85.8125 130.128906 Z M 71.132812 114.785156 C 74.035156 118.339844 77.007812 121.652344 80 124.664062 C 82.984375 121.652344 85.957031 118.339844 88.859375 114.785156 C 85.878906 114.929688 82.90625 115 80 115 C 77.089844 115 74.117188 114.929688 71.132812 114.785156 Z M 64.699219 106.359375 C 69.6875 106.785156 74.835938 107 80 107 C 85.171875 107 90.308594 106.785156 95.292969 106.359375 C 98.265625 102.191406 101.097656 97.824219 103.71875 93.371094 C 106.257812 89.058594 108.640625 84.5625 110.8125 79.996094 C 108.648438 75.445312 106.265625 70.949219 103.722656 66.628906 C 101.105469 62.1875 98.273438 57.816406 95.292969 53.640625 C 90.3125 53.214844 85.175781 53 80 53 C 74.824219 53 69.683594 53.214844 64.707031 53.640625 C 61.726562 57.8125 58.886719 62.183594 56.269531 66.632812 C 53.726562 70.949219 51.34375 75.445312 49.175781 80.003906 C 51.339844 84.550781 53.722656 89.046875 56.265625 93.371094 C 58.875 97.800781 61.707031 102.167969 64.699219 106.359375 Z M 114.980469 89.558594 C 113.570312 92.25 112.105469 94.890625 110.613281 97.425781 C 109.105469 99.988281 107.503906 102.5625 105.839844 105.097656 C 110.589844 104.367188 115.128906 103.429688 119.382812 102.296875 C 118.203125 98.199219 116.722656 93.925781 114.980469 89.558594 Z M 40.609375 102.296875 C 44.863281 103.425781 49.402344 104.363281 54.144531 105.097656 C 52.46875 102.542969 50.867188 99.96875 49.371094 97.425781 C 47.882812 94.890625 46.414062 92.257812 45.007812 89.5625 C 43.273438 93.910156 41.796875 98.183594 40.609375 102.296875 Z M 119.632812 80 C 122.6875 86.78125 125.179688 93.484375 127.046875 99.953125 C 141.851562 94.746094 151 87.148438 151 80 C 151 72.851562 141.851562 65.253906 127.046875 60.046875 C 125.183594 66.515625 122.691406 73.21875 119.632812 80 Z M 32.945312 60.050781 C 18.144531 65.257812 9 72.855469 9 80 C 9 87.148438 18.144531 94.746094 32.949219 99.953125 C 34.816406 93.480469 37.304688 86.777344 40.359375 80.003906 C 37.304688 73.226562 34.8125 66.523438 32.945312 60.050781 Z M 40.605469 57.703125 C 41.792969 61.8125 43.269531 66.085938 45.007812 70.441406 C 46.414062 67.757812 47.878906 65.117188 49.375 62.574219 C 50.878906 60.019531 52.480469 57.445312 54.148438 54.902344 C 49.402344 55.632812 44.863281 56.574219 40.605469 57.703125 Z M 105.84375 54.902344 C 107.519531 57.457031 109.121094 60.027344 110.617188 62.574219 C 112.109375 65.109375 113.574219 67.746094 114.984375 70.441406 C 116.722656 66.085938 118.199219 61.8125 119.386719 57.703125 C 115.128906 56.570312 110.589844 55.632812 105.84375 54.902344 Z M 48.941406 16.992188 C 46.921875 16.992188 45.132812 17.425781 43.628906 18.28125 C 41.003906 19.769531 39.125 22.578125 38.039062 26.632812 C 36.46875 32.503906 36.6875 40.558594 38.671875 49.988281 C 45.390625 48.207031 52.675781 46.878906 60.339844 46.046875 C 64.773438 40.105469 69.429688 34.671875 74.195312 29.871094 C 64.675781 21.558594 55.730469 16.992188 48.941406 16.992188 Z M 99.65625 46.046875 C 107.316406 46.878906 114.597656 48.203125 121.320312 49.984375 C 123.304688 40.554688 123.527344 32.492188 121.953125 26.625 C 120.871094 22.582031 118.992188 19.777344 116.375 18.292969 C 114.867188 17.441406 113.074219 17.007812 111.050781 17.007812 C 104.265625 17.007812 95.332031 21.566406 85.8125 29.871094 C 90.574219 34.671875 95.226562 40.105469 99.65625 46.046875 Z M 80 45 C 82.90625 45 85.878906 45.070312 88.863281 45.214844 C 85.960938 41.664062 82.988281 38.355469 80.003906 35.339844 C 77.011719 38.359375 74.039062 41.671875 71.140625 45.214844 C 74.121094 45.070312 77.09375 45 80 45 Z M 80 45 "/>
<path style=" stroke:none;fill-rule:nonzero;fill:rgb(30.588236%,47.843137%,70.980394%);fill-opacity:1;" d="M 48.941406 9.992188 C 57.929688 9.992188 68.933594 15.8125 80.007812 25.726562 C 91.074219 15.820312 102.074219 10.007812 111.054688 10.007812 C 114.300781 10.007812 117.253906 10.746094 119.824219 12.207031 C 124.136719 14.648438 127.128906 18.890625 128.71875 24.816406 C 130.871094 32.652344 130.421875 42.296875 127.851562 52.976562 C 146.292969 59.140625 158 68.863281 158 80 C 158 91.136719 146.292969 100.859375 127.847656 107.023438 C 130.53125 118.570312 130.980469 128.476562 128.714844 135.183594 C 127.128906 141.105469 124.136719 145.351562 119.828125 147.792969 C 117.253906 149.253906 114.910156 150 111.664062 150 C 111.664062 150 110.835938 150 110.832031 150 C 101.847656 150 91.066406 144.179688 80 134.277344 C 68.929688 144.191406 57.929688 150.007812 48.945312 150.007812 C 45.699219 150.007812 42.746094 149.265625 40.175781 147.808594 C 35.859375 145.359375 32.863281 141.109375 31.277344 135.179688 C 28.898438 127.746094 29.378906 117.972656 32.144531 107.023438 C 13.703125 100.859375 2 91.136719 2 80 C 2 68.863281 13.703125 59.140625 32.144531 52.976562 C 30.769531 46.859375 29.890625 41.179688 29.863281 36 C 29.839844 31.90625 30.394531 28.101562 31.277344 24.820312 C 32.863281 18.886719 35.855469 14.640625 40.171875 12.191406 C 42.742188 10.730469 45.695312 9.992188 48.941406 9.992188 M 37.914062 51.226562 C 44.871094 49.316406 52.59375 47.875 60.882812 46.992188 C 65.644531 40.574219 70.632812 34.800781 75.652344 29.824219 C 65.910156 21.132812 56.421875 15.992188 48.941406 15.992188 C 46.742188 15.992188 44.792969 16.46875 43.132812 17.410156 C 40.269531 19.035156 38.230469 22.050781 37.070312 26.371094 C 35.355469 32.777344 35.746094 41.433594 37.914062 51.226562 M 122.078125 51.226562 C 124.246094 41.429688 124.636719 32.773438 122.921875 26.367188 C 121.765625 22.054688 119.726562 19.046875 116.867188 17.425781 C 115.207031 16.480469 113.25 16.007812 111.054688 16.007812 C 103.578125 16.007812 94.097656 21.140625 84.355469 29.824219 C 89.375 34.800781 94.355469 40.574219 99.117188 46.992188 C 107.402344 47.871094 115.125 49.316406 122.078125 51.226562 M 68.953125 46.332031 C 72.558594 46.117188 76.171875 45.933594 79.929688 45.933594 C 83.6875 45.933594 87.441406 46.121094 91.042969 46.332031 C 87.429688 41.773438 83.714844 37.609375 80.003906 33.925781 C 76.289062 37.609375 72.574219 41.773438 68.953125 46.332031 M 80 108 C 85.523438 108 90.808594 107.757812 95.835938 107.316406 C 98.875 103.082031 101.8125 98.585938 104.578125 93.878906 C 107.285156 89.28125 109.734375 84.625 111.921875 80 C 109.734375 75.375 107.285156 70.722656 104.582031 66.125 C 101.8125 61.414062 98.875 56.921875 95.835938 52.6875 C 90.808594 52.242188 85.523438 52 80 52 C 74.476562 52 69.1875 52.242188 64.160156 52.6875 C 61.117188 56.921875 58.179688 61.414062 55.40625 66.125 C 52.703125 70.722656 50.257812 75.375 48.070312 80.003906 C 50.257812 84.628906 52.703125 89.28125 55.40625 93.875 C 58.175781 98.585938 61.113281 103.078125 64.152344 107.3125 C 69.183594 107.757812 74.472656 108 80 108 M 115.09375 72.824219 C 117.34375 67.40625 119.203125 62.089844 120.625 57 C 115.519531 55.597656 109.878906 54.4375 103.769531 53.585938 C 105.824219 56.640625 107.824219 59.804688 109.753906 63.082031 C 111.660156 66.320312 113.433594 69.574219 115.09375 72.824219 M 44.898438 72.828125 C 46.554688 69.578125 48.328125 66.320312 50.234375 63.082031 C 52.160156 59.804688 54.164062 56.640625 56.222656 53.589844 C 50.113281 54.4375 44.472656 55.597656 39.367188 57.003906 C 40.789062 62.089844 42.648438 67.40625 44.898438 72.828125 M 126.375 101.242188 C 142.527344 95.773438 152 87.730469 152 80 C 152 72.269531 142.527344 64.226562 126.375 58.757812 C 124.46875 65.566406 121.839844 72.722656 118.535156 79.996094 C 121.839844 87.277344 124.46875 94.433594 126.375 101.242188 M 33.621094 101.242188 C 35.523438 94.433594 38.152344 87.277344 41.457031 80.003906 C 38.152344 72.726562 35.523438 65.570312 33.617188 58.761719 C 17.46875 64.230469 8 72.269531 8 80 C 8 87.730469 17.46875 95.769531 33.621094 101.242188 M 103.769531 106.414062 C 109.878906 105.566406 115.519531 104.40625 120.625 103 C 119.203125 97.910156 117.339844 92.59375 115.09375 87.171875 C 113.433594 90.421875 111.65625 93.679688 109.753906 96.917969 C 107.824219 100.195312 105.824219 103.359375 103.769531 106.414062 M 56.21875 106.410156 C 54.160156 103.359375 52.160156 100.195312 50.230469 96.921875 C 48.328125 93.683594 46.554688 90.429688 44.898438 87.179688 C 42.648438 92.597656 40.789062 97.914062 39.371094 103 C 44.472656 104.402344 50.113281 105.5625 56.21875 106.410156 M 48.949219 144.007812 C 56.425781 144.007812 65.910156 138.867188 75.652344 130.179688 C 70.625 125.199219 65.640625 119.425781 60.875 113.003906 C 52.589844 112.125 44.871094 110.683594 37.921875 108.773438 C 35.753906 118.566406 35.363281 127.222656 37.074219 133.628906 C 38.230469 137.949219 40.273438 140.960938 43.136719 142.589844 C 44.792969 143.53125 46.75 144.007812 48.949219 144.007812 M 111.054688 143.992188 C 113.253906 143.992188 115.207031 143.519531 116.867188 142.574219 C 119.726562 140.953125 121.761719 137.945312 122.914062 133.628906 C 124.632812 127.222656 124.242188 118.566406 122.074219 108.773438 C 115.121094 110.683594 107.398438 112.128906 99.113281 113.007812 C 94.351562 119.425781 89.371094 125.199219 84.351562 130.175781 C 94.09375 138.855469 103.574219 143.992188 111.054688 143.992188 M 80 126.078125 C 83.714844 122.390625 87.425781 118.226562 91.042969 113.667969 C 87.441406 113.882812 83.925781 114.335938 80.164062 114.335938 C 76.402344 114.335938 72.550781 113.882812 68.949219 113.667969 C 72.566406 118.226562 76.285156 122.394531 80 126.078125 M 48.230469 8.144531 C 44.632812 8.144531 42.0625 8.820312 39.1875 10.449219 C 34.386719 13.171875 31.074219 17.832031 29.34375 24.300781 C 27.425781 31.476562 27.589844 40.90625 29.816406 51.664062 C 10.839844 58.378906 0 68.648438 0 80 C 0 91.351562 10.839844 101.621094 29.816406 108.335938 C 27.59375 119.09375 27.425781 128.523438 29.347656 135.699219 C 31.078125 142.164062 34.386719 146.824219 39.191406 149.550781 C 42.070312 151.183594 45.53125 151.875 49.125 151.875 C 58.101562 151.875 68.632812 146.804688 80.003906 136.945312 C 91.371094 146.796875 102.078125 151.992188 111.050781 151.992188 C 114.648438 151.992188 117.933594 151.167969 120.8125 149.535156 C 125.609375 146.816406 128.914062 142.164062 130.644531 135.703125 C 132.566406 128.527344 132.402344 119.097656 130.175781 108.339844 C 149.15625 101.625 160 91.351562 160 80 C 160 68.648438 149.160156 58.375 130.179688 51.660156 C 132.40625 40.902344 132.570312 31.472656 130.648438 24.296875 C 128.914062 17.835938 125.605469 13.183594 120.808594 10.464844 C 117.933594 8.835938 114.648438 8.007812 111.050781 8.007812 C 102.082031 8.007812 91.375 13.203125 80.003906 23.058594 C 68.632812 13.195312 57.871094 8.136719 48.894531 8.136719 Z M 39.441406 48.753906 C 38.515625 44.105469 37.894531 39.75 37.863281 35.929688 C 37.832031 32.488281 38.304688 29.496094 39.003906 26.886719 C 40.015625 23.105469 41.738281 20.5 44.121094 19.148438 C 45.472656 18.378906 47.121094 17.859375 48.964844 17.859375 C 55.328125 17.859375 63.699219 22.214844 72.730469 29.929688 C 68.289062 34.472656 63.949219 39.566406 59.800781 45.097656 C 52.628906 45.898438 45.792969 47.125 39.441406 48.753906 Z M 87.277344 29.933594 C 96.304688 22.226562 104.699219 18.007812 111.050781 18.007812 C 112.898438 18.007812 114.527344 18.394531 115.878906 19.164062 C 118.257812 20.511719 119.976562 23.109375 120.988281 26.886719 C 122.738281 32.523438 122.511719 40.015625 120.554688 48.753906 C 114.199219 47.125 107.367188 45.894531 100.199219 45.101562 C 96.050781 39.570312 91.714844 34.476562 87.277344 29.933594 Z M 73.347656 44.121094 C 75.539062 41.519531 77.765625 39.058594 80.003906 36.765625 C 82.238281 39.058594 84.464844 41.519531 86.652344 44.121094 C 84.414062 44.039062 82.191406 44 80 44 C 77.808594 44 75.585938 44.039062 73.347656 44.121094 Z M 65.25 54.601562 C 70.058594 54.203125 75.015625 53.917969 80 53.917969 C 84.980469 53.917969 89.9375 54.203125 94.746094 54.601562 C 97.609375 58.636719 100.339844 62.851562 102.859375 67.136719 C 105.300781 71.292969 107.605469 75.617188 109.703125 79.996094 C 107.601562 84.382812 105.300781 88.707031 102.855469 92.863281 C 100.335938 97.148438 97.609375 101.363281 94.742188 105.398438 C 89.9375 105.796875 84.980469 106.332031 80 106.332031 C 75.015625 106.332031 70.054688 105.796875 65.242188 105.398438 C 62.378906 101.363281 59.648438 97.148438 57.128906 92.859375 C 54.683594 88.707031 52.382812 84.382812 50.285156 80 C 52.382812 75.617188 54.6875 71.292969 57.128906 67.136719 C 59.652344 62.851562 62.382812 58.636719 65.25 54.601562 Z M 114.84375 68.046875 C 113.746094 66.011719 112.621094 64.011719 111.476562 62.066406 C 110.339844 60.128906 109.144531 58.183594 107.90625 56.25 C 111.457031 56.855469 114.878906 57.574219 118.136719 58.410156 C 117.203125 61.542969 116.101562 64.765625 114.84375 68.046875 Z M 41.855469 58.410156 C 45.113281 57.574219 48.535156 56.855469 52.085938 56.25 C 50.847656 58.183594 49.652344 60.128906 48.511719 62.066406 C 47.371094 64.011719 46.242188 66.011719 45.144531 68.046875 C 43.890625 64.769531 42.789062 61.542969 41.855469 58.410156 Z M 120.730469 79.996094 C 123.558594 73.675781 125.902344 67.414062 127.710938 61.347656 C 141.515625 66.382812 150 73.441406 150 80 C 150 86.558594 141.515625 93.617188 127.710938 98.652344 C 125.902344 92.585938 123.558594 86.320312 120.730469 79.996094 Z M 32.285156 98.652344 C 18.480469 93.613281 10 86.554688 10 80 C 10 73.445312 18.480469 66.386719 32.28125 61.347656 C 34.089844 67.417969 36.429688 73.679688 39.261719 80.003906 C 36.433594 86.324219 34.089844 92.585938 32.285156 98.652344 Z M 107.90625 103.753906 C 109.140625 101.816406 110.339844 99.871094 111.476562 97.933594 C 112.621094 95.988281 113.746094 93.988281 114.84375 91.953125 C 116.101562 95.234375 117.199219 98.460938 118.136719 101.59375 C 114.875 102.425781 111.453125 103.148438 107.90625 103.753906 Z M 41.859375 101.589844 C 42.792969 98.457031 43.890625 95.234375 45.144531 91.957031 C 46.242188 93.992188 47.367188 95.992188 48.511719 97.933594 C 49.648438 99.871094 50.84375 101.8125 52.078125 103.75 C 48.535156 103.144531 45.113281 102.421875 41.859375 101.589844 Z M 48.949219 142.007812 C 47.101562 142.007812 45.476562 141.617188 44.121094 140.847656 C 41.742188 139.496094 40.019531 136.894531 39.007812 133.109375 C 37.347656 127.421875 37.535156 119.925781 39.445312 111.242188 C 45.796875 112.871094 52.628906 114.101562 59.792969 114.894531 C 63.945312 120.429688 68.285156 125.523438 72.730469 130.070312 C 63.699219 137.785156 55.304688 142.007812 48.949219 142.007812 Z M 100.195312 114.898438 C 107.363281 114.101562 114.199219 112.875 120.550781 111.246094 C 122.761719 120.726562 122.9375 128.285156 120.984375 133.113281 C 119.976562 136.890625 118.257812 139.488281 115.882812 140.835938 C 114.527344 141.601562 112.902344 141.992188 111.054688 141.992188 L 111.054688 143.992188 L 111.054688 141.992188 C 104.695312 141.992188 96.300781 137.773438 87.273438 130.070312 C 91.710938 125.523438 96.050781 120.433594 100.195312 114.898438 Z M 80 123.238281 C 77.761719 120.945312 75.53125 118.480469 73.339844 115.878906 C 75.578125 115.960938 77.808594 116 80 116 C 82.191406 116 84.414062 115.960938 86.652344 115.878906 C 84.464844 118.480469 82.238281 120.945312 80 123.238281 Z M 80 123.238281 "/>
</g>
</svg>
